# Created by FreeCAD <http://www.freecadweb.org>
v 6.920386 16.444254 0.010325
v 6.946031 16.462212 0.021707
v 7.000000 16.500000 0.100000
v 6.994279 16.495995 0.071979
v 6.998562 16.498993 0.085847
v 6.965488 16.475834 0.034815
v 6.987235 16.491062 0.058675
v 6.977573 16.484297 0.046204
v 0.001772 11.599789 0.218744
v -0.000000 11.598547 0.200000
v 0.007027 11.603468 0.236824
v 0.015577 11.609455 0.253599
v 0.027121 11.617537 0.268473
v 0.041247 11.627429 0.280920
v 0.057457 11.638779 0.290499
v 0.075174 11.651185 0.296869
v 0.087489 11.659807 0.299214
v 0.100000 11.668568 0.300000
v 0.001772 11.599789 0.081256
v 0.007027 11.603468 0.063176
v -0.000000 11.598547 0.100000
v 0.015577 11.609455 0.046401
v 0.027121 11.617537 0.031527
v 0.041247 11.627429 0.019080
v 0.057457 11.638779 0.009501
v 0.075174 11.651185 0.003131
v 0.087489 11.659807 0.000786
v 0.100000 11.668568 -0.000000
v 6.994279 16.495995 0.228021
v 7.000000 16.500000 0.200000
v 6.998562 16.498993 0.214153
v 6.987235 16.491062 0.241325
v 6.977573 16.484297 0.253796
v 6.965488 16.475834 0.265185
v 6.946031 16.462212 0.278293
v 6.920386 16.444254 0.289675
v 6.857185 16.400000 -0.000000
v 6.857185 16.400000 0.300000
v 6.889634 16.422722 0.002615
v 6.889634 16.422722 0.297385
v -0.000000 16.200001 0.100000
v -0.000000 16.200001 0.200000
v 0.002507 16.200001 0.077748
v 0.009903 16.200001 0.056612
v 0.021817 16.200001 0.037651
v 0.037651 16.200001 0.021817
v 0.056612 16.200001 0.009903
v 0.077748 16.200001 0.002507
v 0.100000 16.200001 -0.000000
v 0.002507 16.200001 0.222252
v 0.009903 16.200001 0.243388
v 0.021817 16.200001 0.262349
v 0.037651 16.200001 0.278183
v 0.056612 16.200001 0.290097
v 0.077748 16.200001 0.297493
v 0.100000 16.200001 0.300000
v 0.105014 16.244505 0.000000
v 0.119806 16.286777 0.000000
v 0.143634 16.324697 0.000000
v 0.213223 16.380194 0.000000
v 0.175302 16.356367 0.000000
v 0.300000 16.400000 0.000000
v 0.255496 16.394985 0.000000
v 0.119806 16.286777 0.300000
v 0.105014 16.244505 0.300000
v 0.213223 16.380194 0.300000
v 0.143634 16.324697 0.300000
v 0.175302 16.356367 0.300000
v 0.300000 16.400000 0.300000
v 0.255496 16.394985 0.300000
v 0.300000 16.500000 0.100000
v 0.300000 16.497494 0.077748
v 0.300000 16.490097 0.056612
v 0.300000 16.478184 0.037651
v 0.300000 16.462349 0.021817
v 0.300000 16.443388 0.009903
v 0.300000 16.422253 0.002507
v 0.300000 16.500000 0.200000
v 0.300000 16.497494 0.222252
v 0.300000 16.490097 0.243388
v 0.300000 16.478184 0.262349
v 0.300000 16.462349 0.278183
v 0.300000 16.443388 0.290097
v 0.300000 16.422253 0.297493
v 0.233244 16.492479 0.100000
v 0.233244 16.492479 0.200000
v 0.169835 16.470291 0.100000
v 0.169835 16.470291 0.200000
v 0.112953 16.434549 0.100000
v 0.112953 16.434549 0.200000
v 0.065451 16.387047 0.100000
v 0.065451 16.387047 0.200000
v 0.029709 16.330166 0.100000
v 0.029709 16.330166 0.200000
v 0.007522 16.266756 0.100000
v 0.007522 16.266756 0.200000
v 0.194398 16.419285 0.009903
v 0.148250 16.390289 0.009903
v 0.136428 16.405113 0.021817
v 0.186171 16.436369 0.021817
v 0.049366 16.320700 0.037651
v 0.028791 16.261902 0.037651
v 0.017176 16.264553 0.056612
v 0.038632 16.325869 0.056612
v 0.241622 16.455770 0.021817
v 0.238098 16.471209 0.037651
v 0.179301 16.450634 0.037651
v 0.073193 16.380873 0.056612
v 0.031968 16.329077 0.077748
v 0.067411 16.385483 0.077748
v 0.203568 16.400242 0.002507
v 0.161428 16.373764 0.002507
v 0.114516 16.432589 0.077748
v 0.245841 16.437286 0.009903
v 0.062714 16.254160 0.009903
v 0.250544 16.416679 0.002507
v 0.044229 16.258379 0.021817
v 0.063632 16.313829 0.021817
v 0.082508 16.373444 0.037651
v 0.119128 16.426807 0.056612
v 0.083320 16.249456 0.002507
v 0.170923 16.468031 0.077748
v 0.080715 16.305603 0.009903
v 0.094887 16.363571 0.021817
v 0.126556 16.417492 0.037651
v 0.174132 16.461369 0.056612
v 0.099758 16.296432 0.002507
v 0.233802 16.490034 0.077748
v 0.109711 16.351749 0.009903
v 0.009966 16.266199 0.077748
v 0.235447 16.482824 0.056612
v 0.126236 16.338572 0.002507
v 0.148250 16.390289 0.290097
v 0.194398 16.419285 0.290097
v 0.136428 16.405113 0.278183
v 0.186171 16.436369 0.278183
v 0.028791 16.261902 0.262349
v 0.049366 16.320700 0.262349
v 0.017176 16.264553 0.243388
v 0.038632 16.325869 0.243388
v 0.238098 16.471209 0.262349
v 0.241622 16.455770 0.278183
v 0.179301 16.450634 0.262349
v 0.031968 16.329077 0.222252
v 0.073193 16.380873 0.243388
v 0.067411 16.385483 0.222252
v 0.203568 16.400242 0.297493
v 0.161428 16.373764 0.297493
v 0.114516 16.432589 0.222252
v 0.245841 16.437286 0.290097
v 0.062714 16.254160 0.290097
v 0.250544 16.416679 0.297493
v 0.044229 16.258379 0.278183
v 0.063632 16.313829 0.278183
v 0.082508 16.373444 0.262349
v 0.119128 16.426807 0.243388
v 0.083320 16.249456 0.297493
v 0.170923 16.468031 0.222252
v 0.080715 16.305603 0.290097
v 0.094887 16.363571 0.278183
v 0.126556 16.417492 0.262349
v 0.174132 16.461369 0.243388
v 0.099758 16.296432 0.297493
v 0.233802 16.490034 0.222252
v 0.109711 16.351749 0.290097
v 0.009966 16.266199 0.222252
v 0.235447 16.482824 0.243388
v 0.126236 16.338572 0.297493
vn 0.573602 -0.819134 -0.000037
vn 0.573319 -0.819332 0.000063
vn 0.573503 -0.819203 0.000064
vn 0.573640 -0.819107 -0.000035
vn 0.573622 -0.819120 -0.000029
vn 0.573602 -0.819134 -0.000017
vn 0.573486 -0.819216 0.000038
vn 0.573561 -0.819163 0.000017
vn 0.573547 -0.819173 0.000023
vn 0.573566 -0.819159 0.000012
vn 0.573561 -0.819163 0.000016
vn 0.573592 -0.819141 -0.000013
vn 0.573545 -0.819174 0.000041
vn 0.573578 -0.819151 -0.000002
vn 0.573486 -0.819216 -0.000038
vn 0.573561 -0.819163 -0.000017
vn 0.573547 -0.819173 -0.000023
vn 0.573566 -0.819159 -0.000012
vn 0.573561 -0.819163 -0.000016
vn 0.573592 -0.819141 0.000013
vn 0.573545 -0.819174 -0.000041
vn 0.573576 -0.819152 0.000000
vn 0.573576 -0.819152 0.000000
vn 0.573577 -0.819151 0.000002
vn 0.573319 -0.819332 -0.000063
vn 0.573640 -0.819107 0.000035
vn 0.573602 -0.819134 0.000017
vn 0.573622 -0.819120 0.000029
vn 0.573503 -0.819203 -0.000064
vn 0.573602 -0.819134 0.000037
vn 0.573576 -0.819152 0.000000
vn 0.573576 -0.819152 0.000000
vn 0.573600 -0.819136 0.000000
vn 0.573600 -0.819136 0.000000
vn 0.573567 -0.819159 0.000000
vn 0.573567 -0.819158 0.000000
vn 0.573574 -0.819154 0.000000
vn 0.573574 -0.819154 0.000000
vn -1.000000 0.000000 0.000000
vn -1.000000 0.000000 0.000000
vn -0.995559 0.000000 -0.094140
vn -0.960264 -0.000059 -0.279094
vn -0.993712 0.000073 -0.111964
vn -0.890921 -0.000091 -0.454158
vn -0.943883 0.000119 -0.330279
vn -0.789993 -0.000095 -0.613115
vn -0.846724 0.000137 -0.532032
vn -0.661069 -0.000071 -0.750325
vn -0.707107 0.000127 -0.707107
vn -0.508730 -0.000018 -0.860926
vn -0.338361 0.000020 -0.941016
vn -0.532032 0.000088 -0.846724
vn -0.187033 -0.000029 -0.982354
vn -0.330279 0.000058 -0.943883
vn -0.062679 0.000000 -0.998034
vn -0.111964 0.000137 -0.993712
vn -0.995559 0.000000 0.094140
vn -0.960264 -0.000059 0.279094
vn -0.993712 0.000073 0.111964
vn -0.890921 -0.000091 0.454159
vn -0.943883 0.000119 0.330279
vn -0.789994 -0.000095 0.613115
vn -0.846724 0.000137 0.532032
vn -0.661068 -0.000071 0.750326
vn -0.707107 0.000127 0.707107
vn -0.508730 -0.000018 0.860926
vn -0.338361 0.000020 0.941016
vn -0.532031 0.000088 0.846725
vn -0.187034 -0.000029 0.982353
vn -0.330280 0.000058 0.943883
vn -0.062679 0.000000 0.998034
vn -0.111965 0.000137 0.993712
vn -0.000000 0.000000 -1.000000
vn 0.000000 -0.000000 -1.000000
vn 0.000000 -0.000000 -1.000000
vn 0.000000 0.000000 -1.000000
vn 0.000000 -0.000000 -1.000000
vn -0.000000 0.000000 -1.000000
vn 0.000000 -0.000000 -1.000000
vn -0.000000 0.000000 -1.000000
vn 0.000000 0.000000 1.000000
vn 0.000000 0.000000 1.000000
vn 0.000000 0.000000 1.000000
vn 0.000000 0.000000 1.000000
vn 0.000000 0.000000 1.000000
vn 0.000000 0.000000 1.000000
vn 0.000000 0.000000 1.000000
vn 0.000000 0.000000 1.000000
vn -0.000087 0.993717 -0.111922
vn 0.000000 0.997478 -0.070978
vn -0.000073 0.943872 -0.330311
vn 0.000037 0.977414 -0.211336
vn -0.000028 0.937637 -0.347615
vn -0.000094 0.846733 -0.532018
vn 0.000020 0.878997 -0.476827
vn -0.000052 0.707093 -0.707121
vn 0.000029 0.802641 -0.596462
vn 0.000002 0.693370 -0.720582
vn -0.000016 0.532025 -0.846729
vn -0.000003 0.535347 -0.844632
vn -0.000008 0.330292 -0.943879
vn 0.000016 0.337069 -0.941480
vn 0.000000 0.111960 -0.993713
vn 0.000008 0.114337 -0.993442
vn -0.000087 0.993717 0.111922
vn 0.000000 0.997478 0.070978
vn -0.000073 0.943872 0.330311
vn 0.000037 0.977414 0.211336
vn -0.000028 0.937637 0.347615
vn -0.000094 0.846733 0.532018
vn 0.000020 0.878997 0.476827
vn -0.000052 0.707093 0.707121
vn 0.000029 0.802641 0.596462
vn 0.000002 0.693370 0.720582
vn -0.000016 0.532024 0.846729
vn -0.000003 0.535348 0.844632
vn -0.000008 0.330293 0.943878
vn 0.000016 0.337069 0.941480
vn 0.000000 0.111960 0.993713
vn 0.000008 0.114338 0.993442
vn 0.000000 1.000000 -0.000000
vn 0.000000 1.000000 0.000000
vn -0.111950 0.993714 0.000000
vn -0.111950 0.993714 0.000000
vn -0.330285 0.943881 0.000000
vn -0.330285 0.943881 0.000000
vn -0.532038 0.846720 0.000000
vn -0.532038 0.846720 0.000000
vn -0.707107 0.707107 0.000000
vn -0.707107 0.707107 0.000000
vn -0.846721 0.532038 0.000000
vn -0.846721 0.532038 0.000000
vn -0.943885 0.330275 0.000000
vn -0.943885 0.330275 0.000000
vn -0.993712 0.111966 0.000000
vn -0.993712 0.111966 0.000000
vn -0.284332 0.452529 -0.845205
vn -0.284329 0.452504 -0.845220
vn -0.800630 0.280151 -0.529629
vn -0.800632 0.280154 -0.529624
vn -0.079424 0.704852 -0.704894
vn -0.079428 0.704859 -0.704887
vn -0.234276 0.669509 -0.704892
vn -0.234269 0.669555 -0.704850
vn -0.799762 0.502527 -0.328401
vn -0.059940 0.095397 -0.993633
vn -0.799761 0.502523 -0.328410
vn -0.059941 0.095398 -0.993633
vn -0.176704 0.281230 -0.943231
vn -0.176704 0.281234 -0.943230
vn -0.702715 0.702714 -0.111286
vn -0.059831 0.531072 -0.845212
vn -0.059848 0.531099 -0.845193
vn -0.702716 0.702712 -0.111294
vn -0.176513 0.504423 -0.845222
vn -0.176508 0.504472 -0.845194
vn -0.531079 0.059838 -0.845207
vn -0.037210 0.106342 -0.993633
vn -0.012614 0.111956 -0.993633
vn -0.037196 0.330064 -0.943226
vn -0.012616 0.111951 -0.993634
vn -0.531079 0.059838 -0.845207
vn -0.037211 0.106343 -0.993633
vn -0.037183 0.330042 -0.943233
vn -0.109699 0.313503 -0.943230
vn -0.109700 0.313491 -0.943233
vn -0.669528 0.234277 -0.704874
vn -0.669531 0.234281 -0.704869
vn -0.718208 0.451280 -0.529645
vn -0.718215 0.451295 -0.529622
vn -0.667893 0.667890 -0.328393
vn -0.667893 0.667889 -0.328394
vn -0.330051 0.037188 -0.943230
vn -0.111956 0.012614 -0.993633
vn -0.111956 0.012614 -0.993633
vn -0.330050 0.037188 -0.943231
vn -0.528732 0.841458 -0.111317
vn -0.528726 0.841465 -0.111289
vn -0.504449 0.176515 -0.845207
vn -0.504450 0.176516 -0.845206
vn -0.600605 0.377394 -0.704874
vn -0.600605 0.377395 -0.704874
vn -0.599782 0.599778 -0.529649
vn -0.599781 0.599777 -0.529651
vn -0.502525 0.799769 -0.328387
vn -0.502525 0.799768 -0.328390
vn -0.106341 0.037210 -0.993633
vn -0.106342 0.037210 -0.993633
vn -0.313501 0.109699 -0.943230
vn -0.313500 0.109698 -0.943231
vn -0.328233 0.938016 -0.111306
vn -0.111255 0.987539 -0.111307
vn -0.111283 0.987545 -0.111227
vn -0.328238 0.938012 -0.111323
vn -0.452522 0.284348 -0.845205
vn -0.452519 0.284344 -0.845207
vn -0.987542 0.111269 -0.111269
vn -0.501582 0.501566 -0.704874
vn -0.987542 0.111271 -0.111264
vn -0.501587 0.501584 -0.704858
vn -0.451278 0.718209 -0.529645
vn -0.938590 0.105754 -0.328427
vn -0.451278 0.718203 -0.529653
vn -0.938590 0.105754 -0.328428
vn -0.311969 0.891537 -0.328386
vn -0.105767 0.938598 -0.328400
vn -0.105744 0.938580 -0.328459
vn -0.938022 0.328223 -0.111288
vn -0.311973 0.891530 -0.328400
vn -0.281229 0.176713 -0.943230
vn -0.095394 0.059942 -0.993633
vn -0.938022 0.328234 -0.111255
vn -0.842897 0.094972 -0.529627
vn -0.281230 0.176714 -0.943230
vn -0.095394 0.059942 -0.993633
vn -0.377913 0.377901 -0.845206
vn -0.377912 0.377898 -0.845207
vn -0.842897 0.094972 -0.529628
vn -0.891527 0.311965 -0.328417
vn -0.891524 0.311959 -0.328431
vn -0.377399 0.600626 -0.704853
vn -0.377399 0.600624 -0.704855
vn -0.841461 0.528733 -0.111288
vn -0.280154 0.800617 -0.529647
vn -0.094980 0.842905 -0.529613
vn -0.094962 0.842884 -0.529650
vn -0.841462 0.528729 -0.111299
vn -0.280154 0.800616 -0.529649
vn -0.079668 0.079665 -0.993633
vn -0.704873 0.079420 -0.704873
vn -0.234861 0.234852 -0.943231
vn -0.234863 0.234858 -0.943229
vn -0.079666 0.079664 -0.993633
vn -0.704874 0.079421 -0.704872
vn -0.284332 0.452529 0.845206
vn -0.284328 0.452504 0.845221
vn -0.800630 0.280151 0.529629
vn -0.800632 0.280154 0.529624
vn -0.079424 0.704852 0.704894
vn -0.079428 0.704859 0.704887
vn -0.234276 0.669509 0.704892
vn -0.234269 0.669556 0.704850
vn -0.799762 0.502527 0.328402
vn -0.059940 0.095397 0.993633
vn -0.799761 0.502523 0.328410
vn -0.059941 0.095398 0.993633
vn -0.176704 0.281231 0.943231
vn -0.176705 0.281235 0.943230
vn -0.702715 0.702714 0.111286
vn -0.059831 0.531071 0.845212
vn -0.059848 0.531099 0.845194
vn -0.702716 0.702712 0.111294
vn -0.176513 0.504423 0.845222
vn -0.176508 0.504471 0.845195
vn -0.531078 0.059838 0.845207
vn -0.037210 0.106342 0.993633
vn -0.012614 0.111956 0.993633
vn -0.037196 0.330065 0.943225
vn -0.012616 0.111951 0.993634
vn -0.531078 0.059838 0.845207
vn -0.037211 0.106343 0.993633
vn -0.037183 0.330043 0.943233
vn -0.109699 0.313503 0.943229
vn -0.109700 0.313492 0.943233
vn -0.669528 0.234277 0.704873
vn -0.669532 0.234281 0.704869
vn -0.718208 0.451280 0.529645
vn -0.718215 0.451295 0.529622
vn -0.667893 0.667890 0.328393
vn -0.667893 0.667889 0.328394
vn -0.330051 0.037188 0.943230
vn -0.111956 0.012614 0.993633
vn -0.111956 0.012614 0.993633
vn -0.330051 0.037188 0.943230
vn -0.528732 0.841458 0.111317
vn -0.528726 0.841465 0.111289
vn -0.504448 0.176514 0.845207
vn -0.504449 0.176516 0.845206
vn -0.600605 0.377395 0.704873
vn -0.600605 0.377395 0.704873
vn -0.599782 0.599778 0.529649
vn -0.599781 0.599777 0.529651
vn -0.502525 0.799769 0.328387
vn -0.502525 0.799768 0.328390
vn -0.106341 0.037210 0.993633
vn -0.106342 0.037210 0.993633
vn -0.313502 0.109699 0.943230
vn -0.313500 0.109698 0.943231
vn -0.328233 0.938016 0.111306
vn -0.111255 0.987539 0.111307
vn -0.111283 0.987545 0.111227
vn -0.328238 0.938012 0.111323
vn -0.452521 0.284347 0.845205
vn -0.452518 0.284343 0.845208
vn -0.987542 0.111269 0.111269
vn -0.501582 0.501567 0.704873
vn -0.987542 0.111271 0.111264
vn -0.501587 0.501584 0.704857
vn -0.451278 0.718209 0.529645
vn -0.938590 0.105754 0.328427
vn -0.451278 0.718203 0.529653
vn -0.938590 0.105754 0.328428
vn -0.311969 0.891537 0.328386
vn -0.105767 0.938598 0.328400
vn -0.105744 0.938580 0.328459
vn -0.938022 0.328223 0.111288
vn -0.311972 0.891530 0.328401
vn -0.281230 0.176714 0.943230
vn -0.095394 0.059942 0.993633
vn -0.938022 0.328234 0.111255
vn -0.842897 0.094972 0.529627
vn -0.281230 0.176714 0.943229
vn -0.095394 0.059942 0.993633
vn -0.377912 0.377901 0.845206
vn -0.377911 0.377898 0.845208
vn -0.842897 0.094972 0.529628
vn -0.891527 0.311965 0.328417
vn -0.891524 0.311959 0.328431
vn -0.377399 0.600626 0.704853
vn -0.377399 0.600625 0.704855
vn -0.841461 0.528733 0.111288
vn -0.280154 0.800617 0.529647
vn -0.094980 0.842905 0.529613
vn -0.094962 0.842884 0.529650
vn -0.841462 0.528729 0.111299
vn -0.280154 0.800616 0.529649
vn -0.079668 0.079665 0.993633
vn -0.704873 0.079420 0.704873
vn -0.234861 0.234853 0.943231
vn -0.234863 0.234858 0.943229
vn -0.079666 0.079664 0.993633
vn -0.704875 0.079421 0.704872
f 1//1 2//1 3//1
f 3//2 4//2 5//2
f 2//3 6//3 3//3
f 3//4 7//4 4//4
f 6//5 8//5 3//5
f 3//6 8//6 7//6
f 9//7 10//7 11//7
f 11//8 10//8 12//8
f 12//9 10//9 13//9
f 13//10 10//10 14//10
f 14//11 10//11 15//11
f 15//12 10//12 16//12
f 10//13 17//13 16//13
f 10//14 18//14 17//14
f 19//15 20//15 21//15
f 20//16 22//16 21//16
f 22//17 23//17 21//17
f 23//18 24//18 21//18
f 24//19 25//19 21//19
f 25//20 26//20 21//20
f 26//21 27//21 21//21
f 21//22 28//22 10//22
f 10//23 28//23 18//23
f 27//24 28//24 21//24
f 29//25 30//25 31//25
f 32//26 30//26 29//26
f 33//27 30//27 32//27
f 34//28 30//28 33//28
f 35//29 30//29 34//29
f 36//30 30//30 35//30
f 18//31 37//31 38//31
f 28//32 37//32 18//32
f 38//33 39//33 40//33
f 37//34 39//34 38//34
f 40//35 1//35 36//35
f 39//36 1//36 40//36
f 1//37 3//37 36//37
f 36//38 3//38 30//38
f 41//39 21//39 10//39
f 41//40 10//40 42//40
f 21//41 41//41 19//41
f 19//42 43//42 20//42
f 41//43 43//43 19//43
f 20//44 44//44 22//44
f 43//45 44//45 20//45
f 22//46 45//46 23//46
f 44//47 45//47 22//47
f 23//48 46//48 24//48
f 45//49 46//49 23//49
f 24//50 47//50 25//50
f 25//51 47//51 26//51
f 46//52 47//52 24//52
f 26//53 48//53 27//53
f 47//54 48//54 26//54
f 27//55 49//55 28//55
f 48//56 49//56 27//56
f 42//57 10//57 9//57
f 50//58 9//58 11//58
f 50//59 42//59 9//59
f 51//60 11//60 12//60
f 51//61 50//61 11//61
f 52//62 12//62 13//62
f 52//63 51//63 12//63
f 53//64 13//64 14//64
f 53//65 52//65 13//65
f 54//66 14//66 15//66
f 54//67 15//67 16//67
f 54//68 53//68 14//68
f 55//69 16//69 17//69
f 55//70 54//70 16//70
f 56//71 17//71 18//71
f 56//72 55//72 17//72
f 57//73 58//73 49//73
f 59//74 60//74 58//74
f 61//75 60//75 59//75
f 49//76 62//76 28//76
f 63//77 62//77 60//77
f 58//78 62//78 49//78
f 60//79 62//79 58//79
f 62//80 37//80 28//80
f 64//81 65//81 56//81
f 66//82 67//82 64//82
f 66//83 68//83 67//83
f 69//84 56//84 18//84
f 69//85 70//85 66//85
f 69//86 64//86 56//86
f 69//87 66//87 64//87
f 38//88 69//88 18//88
f 71//89 5//89 72//89
f 3//90 5//90 71//90
f 72//91 4//91 73//91
f 5//92 4//92 72//92
f 4//93 7//93 73//93
f 73//94 8//94 74//94
f 7//95 8//95 73//95
f 74//96 6//96 75//96
f 8//97 6//97 74//97
f 6//98 2//98 75//98
f 75//99 1//99 76//99
f 2//100 1//100 75//100
f 76//101 39//101 77//101
f 1//102 39//102 76//102
f 77//103 37//103 62//103
f 39//104 37//104 77//104
f 31//105 78//105 79//105
f 31//106 30//106 78//106
f 29//107 79//107 80//107
f 29//108 31//108 79//108
f 32//109 29//109 80//109
f 33//110 80//110 81//110
f 33//111 32//111 80//111
f 34//112 81//112 82//112
f 34//113 33//113 81//113
f 35//114 34//114 82//114
f 36//115 82//115 83//115
f 36//116 35//116 82//116
f 40//117 83//117 84//117
f 40//118 36//118 83//118
f 38//119 84//119 69//119
f 38//120 40//120 84//120
f 3//121 71//121 30//121
f 30//122 71//122 78//122
f 71//123 85//123 78//123
f 78//124 85//124 86//124
f 86//125 87//125 88//125
f 85//126 87//126 86//126
f 88//127 89//127 90//127
f 87//128 89//128 88//128
f 90//129 91//129 92//129
f 89//130 91//130 90//130
f 92//131 93//131 94//131
f 91//132 93//132 92//132
f 94//133 95//133 96//133
f 93//134 95//134 94//134
f 96//135 41//135 42//135
f 95//136 41//136 96//136
f 97//137 98//137 99//137
f 97//138 99//138 100//138
f 101//139 102//139 103//139
f 101//140 103//140 104//140
f 105//141 106//141 74//141
f 105//142 74//142 75//142
f 105//143 107//143 106//143
f 105//144 100//144 107//144
f 108//145 109//145 110//145
f 111//146 60//146 61//146
f 108//147 104//147 109//147
f 111//148 61//148 112//148
f 111//149 112//149 98//149
f 111//150 98//150 97//150
f 113//151 91//151 89//151
f 114//152 75//152 76//152
f 114//153 105//153 75//153
f 113//154 110//154 91//154
f 114//155 97//155 100//155
f 114//156 100//156 105//156
f 115//157 47//157 46//157
f 116//158 63//158 60//158
f 116//159 62//159 63//159
f 116//160 76//160 77//160
f 116//161 77//161 62//161
f 115//162 46//162 117//162
f 116//163 60//163 111//163
f 116//164 114//164 76//164
f 116//165 111//165 97//165
f 116//166 97//166 114//166
f 118//167 102//167 101//167
f 118//168 117//168 102//168
f 119//169 104//169 108//169
f 119//170 101//170 104//170
f 120//171 108//171 110//171
f 120//172 110//172 113//172
f 121//173 48//173 47//173
f 121//174 49//174 48//174
f 121//175 57//175 49//175
f 121//176 47//176 115//176
f 122//177 89//177 87//177
f 122//178 113//178 89//178
f 123//179 115//179 117//179
f 123//180 117//180 118//180
f 124//181 118//181 101//181
f 124//182 101//182 119//182
f 125//183 108//183 120//183
f 125//184 119//184 108//184
f 126//185 120//185 113//185
f 126//186 113//186 122//186
f 127//187 58//187 57//187
f 127//188 57//188 121//188
f 127//189 115//189 123//189
f 127//190 121//190 115//190
f 128//191 87//191 85//191
f 128//192 85//192 71//192
f 128//193 71//193 72//193
f 128//194 122//194 87//194
f 129//195 123//195 118//195
f 129//196 118//196 124//196
f 130//197 43//197 41//197
f 99//198 124//198 119//198
f 130//199 41//199 95//199
f 99//200 119//200 125//200
f 107//201 120//201 126//201
f 103//202 44//202 43//202
f 107//203 125//203 120//203
f 103//204 43//204 130//204
f 131//205 126//205 122//205
f 131//206 128//206 72//206
f 131//207 72//207 73//207
f 109//208 95//208 93//208
f 131//209 122//209 128//209
f 132//210 127//210 123//210
f 132//211 59//211 58//211
f 109//212 130//212 95//212
f 102//213 45//213 44//213
f 132//214 123//214 129//214
f 132//215 58//215 127//215
f 98//216 124//216 99//216
f 98//217 129//217 124//217
f 102//218 44//218 103//218
f 104//219 130//219 109//219
f 104//220 103//220 130//220
f 100//221 125//221 107//221
f 100//222 99//222 125//222
f 110//223 93//223 91//223
f 106//224 107//224 126//224
f 106//225 73//225 74//225
f 106//226 131//226 73//226
f 110//227 109//227 93//227
f 106//228 126//228 131//228
f 112//229 61//229 59//229
f 117//230 46//230 45//230
f 112//231 129//231 98//231
f 112//232 132//232 129//232
f 112//233 59//233 132//233
f 117//234 45//234 102//234
f 133//235 134//235 135//235
f 135//236 134//236 136//236
f 137//237 138//237 139//237
f 139//238 138//238 140//238
f 141//239 142//239 81//239
f 81//240 142//240 82//240
f 143//241 142//241 141//241
f 136//242 142//242 143//242
f 144//243 145//243 146//243
f 66//244 147//244 68//244
f 140//245 145//245 144//245
f 68//246 147//246 148//246
f 148//247 147//247 133//247
f 133//248 147//248 134//248
f 92//249 149//249 90//249
f 82//250 150//250 83//250
f 142//251 150//251 82//251
f 146//252 149//252 92//252
f 134//253 150//253 136//253
f 136//254 150//254 142//254
f 54//255 151//255 53//255
f 70//256 152//256 66//256
f 69//257 152//257 70//257
f 83//258 152//258 84//258
f 84//259 152//259 69//259
f 53//260 151//260 153//260
f 66//261 152//261 147//261
f 150//262 152//262 83//262
f 147//263 152//263 134//263
f 134//264 152//264 150//264
f 137//265 154//265 138//265
f 153//266 154//266 137//266
f 140//267 155//267 145//267
f 138//268 155//268 140//268
f 145//269 156//269 146//269
f 146//270 156//270 149//270
f 55//271 157//271 54//271
f 56//272 157//272 55//272
f 65//273 157//273 56//273
f 54//274 157//274 151//274
f 90//275 158//275 88//275
f 149//276 158//276 90//276
f 151//277 159//277 153//277
f 153//278 159//278 154//278
f 154//279 160//279 138//279
f 138//280 160//280 155//280
f 145//281 161//281 156//281
f 155//282 161//282 145//282
f 156//283 162//283 149//283
f 149//284 162//284 158//284
f 64//285 163//285 65//285
f 65//286 163//286 157//286
f 151//287 163//287 159//287
f 157//288 163//288 151//288
f 88//289 164//289 86//289
f 86//290 164//290 78//290
f 78//291 164//291 79//291
f 158//292 164//292 88//292
f 159//293 165//293 154//293
f 154//294 165//294 160//294
f 50//295 166//295 42//295
f 160//296 135//296 155//296
f 42//297 166//297 96//297
f 155//298 135//298 161//298
f 156//299 143//299 162//299
f 51//300 139//300 50//300
f 161//301 143//301 156//301
f 50//302 139//302 166//302
f 162//303 167//303 158//303
f 164//304 167//304 79//304
f 79//305 167//305 80//305
f 96//306 144//306 94//306
f 158//307 167//307 164//307
f 163//308 168//308 159//308
f 67//309 168//309 64//309
f 166//310 144//310 96//310
f 52//311 137//311 51//311
f 159//312 168//312 165//312
f 64//313 168//313 163//313
f 160//314 133//314 135//314
f 165//315 133//315 160//315
f 51//316 137//316 139//316
f 166//317 140//317 144//317
f 139//318 140//318 166//318
f 161//319 136//319 143//319
f 135//320 136//320 161//320
f 94//321 146//321 92//321
f 143//322 141//322 162//322
f 80//323 141//323 81//323
f 167//324 141//324 80//324
f 144//325 146//325 94//325
f 162//326 141//326 167//326
f 68//327 148//327 67//327
f 53//328 153//328 52//328
f 165//329 148//329 133//329
f 168//330 148//330 165//330
f 67//331 148//331 168//331
f 52//332 153//332 137//332
