# Created by FreeCAD <http://www.freecadweb.org>
v -9.000000 5.000000 0.000000
v -9.000000 -5.000000 0.000000
v -9.000000 -5.000000 1.000000
v -9.000000 5.000000 1.000000
v -4.000000 10.000000 0.000000
v -4.711574 9.949107 0.000000
v -4.000000 10.000000 1.000000
v -4.711574 9.949107 1.000000
v -5.408663 9.797465 0.000000
v -5.408663 9.797465 1.000000
v -6.077075 9.548160 0.000000
v -6.077075 9.548160 1.000000
v -6.703204 9.206267 0.000000
v -6.703204 9.206267 1.000000
v -7.274303 8.778748 0.000000
v -7.274303 8.778748 1.000000
v -7.778748 8.274303 0.000000
v -7.778748 8.274303 1.000000
v -8.206267 7.703204 0.000000
v -8.206267 7.703204 1.000000
v -8.548160 7.077075 0.000000
v -8.548160 7.077075 1.000000
v -8.797465 6.408663 0.000000
v -8.797465 6.408663 1.000000
v -8.949107 5.711574 0.000000
v -8.949107 5.711574 1.000000
v 9.000000 10.000000 0.000000
v 9.000000 10.000000 1.000000
v 9.000000 -10.000000 0.000000
v 9.000000 -10.000000 1.000000
v -4.000000 -10.000000 0.000000
v -4.000000 -10.000000 1.000000
v -8.949107 -5.711574 0.000000
v -8.949107 -5.711574 1.000000
v -8.797465 -6.408663 0.000000
v -8.797465 -6.408663 1.000000
v -8.548160 -7.077075 0.000000
v -8.548160 -7.077075 1.000000
v -8.206267 -7.703204 0.000000
v -8.206267 -7.703204 1.000000
v -7.778748 -8.274303 0.000000
v -7.778748 -8.274303 1.000000
v -7.274303 -8.778748 0.000000
v -7.274303 -8.778748 1.000000
v -6.703204 -9.206267 0.000000
v -6.703204 -9.206267 1.000000
v -6.077075 -9.548160 0.000000
v -6.077075 -9.548160 1.000000
v -5.408663 -9.797465 0.000000
v -5.408663 -9.797465 1.000000
v -4.711574 -9.949107 0.000000
v -4.711574 -9.949107 1.000000
vn -1.000000 0.000000 0.000000
vn -1.000000 0.000000 0.000000
vn -0.071339 0.997452 0.000000
vn -0.071339 0.997452 0.000000
vn -0.212565 0.977147 0.000000
vn -0.212565 0.977147 0.000000
vn -0.349465 0.936949 0.000000
vn -0.349465 0.936949 0.000000
vn -0.479249 0.877679 0.000000
vn -0.479249 0.877679 0.000000
vn -0.599278 0.800541 0.000000
vn -0.599278 0.800541 0.000000
vn -0.707106 0.707107 0.000000
vn -0.707106 0.707107 0.000000
vn -0.800541 0.599277 0.000000
vn -0.800541 0.599277 0.000000
vn -0.877679 0.479249 0.000000
vn -0.877679 0.479249 0.000000
vn -0.936949 0.349465 0.000000
vn -0.936949 0.349465 0.000000
vn -0.977147 0.212565 0.000000
vn -0.977147 0.212565 0.000000
vn -0.997452 0.071339 0.000000
vn -0.997452 0.071339 0.000000
vn 0.000000 1.000000 0.000000
vn 0.000000 1.000000 -0.000000
vn 1.000000 0.000000 0.000000
vn 1.000000 0.000000 0.000000
vn 0.000000 -1.000000 0.000000
vn 0.000000 -1.000000 0.000000
vn -0.997452 -0.071339 0.000000
vn -0.997452 -0.071339 0.000000
vn -0.977147 -0.212565 0.000000
vn -0.977147 -0.212565 0.000000
vn -0.936949 -0.349465 0.000000
vn -0.936949 -0.349465 0.000000
vn -0.877679 -0.479249 0.000000
vn -0.877679 -0.479249 0.000000
vn -0.800541 -0.599277 0.000000
vn -0.800541 -0.599277 0.000000
vn -0.707106 -0.707107 0.000000
vn -0.707106 -0.707107 0.000000
vn -0.599278 -0.800541 0.000000
vn -0.599278 -0.800541 0.000000
vn -0.479249 -0.877679 0.000000
vn -0.479249 -0.877679 0.000000
vn -0.349465 -0.936949 0.000000
vn -0.349465 -0.936949 0.000000
vn -0.212565 -0.977147 0.000000
vn -0.212565 -0.977147 0.000000
vn -0.071339 -0.997452 0.000000
vn -0.071339 -0.997452 0.000000
vn 0.000000 0.000000 -1.000000
vn 0.000000 0.000000 -1.000000
vn 0.000000 0.000000 -1.000000
vn 0.000000 -0.000000 -1.000000
vn 0.000000 0.000000 -1.000000
vn 0.000000 0.000000 -1.000000
vn 0.000000 0.000000 -1.000000
vn 0.000000 0.000000 -1.000000
vn 0.000000 0.000000 -1.000000
vn 0.000000 0.000000 -1.000000
vn 0.000000 0.000000 -1.000000
vn 0.000000 0.000000 -1.000000
vn 0.000000 0.000000 -1.000000
vn 0.000000 -0.000000 -1.000000
vn 0.000000 0.000000 -1.000000
vn 0.000000 0.000000 -1.000000
vn 0.000000 0.000000 -1.000000
vn 0.000000 0.000000 -1.000000
vn 0.000000 0.000000 -1.000000
vn 0.000000 -0.000000 -1.000000
vn 0.000000 0.000000 -1.000000
vn 0.000000 0.000000 -1.000000
vn 0.000000 -0.000000 -1.000000
vn 0.000000 -0.000000 -1.000000
vn 0.000000 0.000000 1.000000
vn 0.000000 0.000000 1.000000
vn 0.000000 0.000000 1.000000
vn 0.000000 -0.000000 1.000000
vn 0.000000 0.000000 1.000000
vn 0.000000 0.000000 1.000000
vn 0.000000 0.000000 1.000000
vn 0.000000 0.000000 1.000000
vn 0.000000 0.000000 1.000000
vn 0.000000 0.000000 1.000000
vn 0.000000 0.000000 1.000000
vn 0.000000 0.000000 1.000000
vn 0.000000 0.000000 1.000000
vn 0.000000 -0.000000 1.000000
vn 0.000000 0.000000 1.000000
vn 0.000000 0.000000 1.000000
vn -0.000000 0.000000 1.000000
vn -0.000000 0.000000 1.000000
vn -0.000000 0.000000 1.000000
vn 0.000000 0.000000 1.000000
vn 0.000000 0.000000 1.000000
vn 0.000000 0.000000 1.000000
vn 0.000000 0.000000 1.000000
vn 0.000000 0.000000 1.000000
f 1//1 2//1 3//1
f 1//2 3//2 4//2
f 5//3 6//3 7//3
f 7//4 6//4 8//4
f 8//5 9//5 10//5
f 6//6 9//6 8//6
f 10//7 11//7 12//7
f 9//8 11//8 10//8
f 12//9 13//9 14//9
f 11//10 13//10 12//10
f 14//11 15//11 16//11
f 13//12 15//12 14//12
f 16//13 17//13 18//13
f 15//14 17//14 16//14
f 18//15 19//15 20//15
f 17//16 19//16 18//16
f 20//17 21//17 22//17
f 19//18 21//18 20//18
f 22//19 23//19 24//19
f 21//20 23//20 22//20
f 24//21 25//21 26//21
f 23//22 25//22 24//22
f 26//23 1//23 4//23
f 25//24 1//24 26//24
f 27//25 5//25 7//25
f 27//26 7//26 28//26
f 29//27 27//27 28//27
f 29//28 28//28 30//28
f 31//29 29//29 30//29
f 31//30 30//30 32//30
f 2//31 33//31 3//31
f 3//32 33//32 34//32
f 34//33 35//33 36//33
f 33//34 35//34 34//34
f 36//35 37//35 38//35
f 35//36 37//36 36//36
f 38//37 39//37 40//37
f 37//38 39//38 38//38
f 40//39 41//39 42//39
f 39//40 41//40 40//40
f 42//41 43//41 44//41
f 41//42 43//42 42//42
f 44//43 45//43 46//43
f 43//44 45//44 44//44
f 46//45 47//45 48//45
f 45//46 47//46 46//46
f 48//47 49//47 50//47
f 47//48 49//48 48//48
f 50//49 51//49 52//49
f 49//50 51//50 50//50
f 52//51 31//51 32//51
f 51//52 31//52 52//52
f 47//53 51//53 49//53
f 41//54 45//54 43//54
f 39//55 45//55 41//55
f 27//56 29//56 31//56
f 37//57 47//57 45//57
f 37//58 45//58 39//58
f 33//59 37//59 35//59
f 33//60 31//60 51//60
f 33//61 51//61 47//61
f 33//62 47//62 37//62
f 2//63 31//63 33//63
f 1//64 31//64 2//64
f 5//65 27//65 31//65
f 5//66 31//66 1//66
f 21//67 25//67 23//67
f 21//68 1//68 25//68
f 13//69 6//69 5//69
f 13//70 9//70 6//70
f 13//71 11//71 9//71
f 13//72 5//72 1//72
f 17//73 21//73 19//73
f 17//74 1//74 21//74
f 17//75 13//75 1//75
f 15//76 13//76 17//76
f 52//77 48//77 50//77
f 46//78 42//78 44//78
f 46//79 40//79 42//79
f 30//80 28//80 32//80
f 48//81 38//81 46//81
f 46//82 38//82 40//82
f 38//83 34//83 36//83
f 32//84 34//84 52//84
f 52//85 34//85 48//85
f 48//86 34//86 38//86
f 32//87 3//87 34//87
f 32//88 4//88 3//88
f 28//89 7//89 32//89
f 32//90 7//90 4//90
f 26//91 22//91 24//91
f 4//92 22//92 26//92
f 8//93 14//93 7//93
f 10//94 14//94 8//94
f 12//95 14//95 10//95
f 7//96 14//96 4//96
f 22//97 18//97 20//97
f 4//98 18//98 22//98
f 14//99 18//99 4//99
f 14//100 16//100 18//100
